<svg width="30" height="30" viewBox="0 0 30 30" fill="none" xmlns="http://www.w3.org/2000/svg">
<circle cx="14.5" cy="14.4999" r="12.5" fill="#333333"/>
<path d="M27.56 0.684021H2.383C1.065 0.684021 0 1.74802 0 3.06402V26.877C0 28.189 1.065 29.256 2.383 29.256H27.56C28.872 29.256 29.94 28.19 29.94 26.877V3.06402C29.939 1.74802 28.871 0.684021 27.56 0.684021ZM20.125 9.16702C19.506 8.80502 19.015 8.51902 18.398 8.51902C17.794 8.51902 17.278 8.67002 17.014 8.92402C16.75 9.17602 16.619 9.66402 16.619 10.385V11.452H19.848L19.149 14.42H16.619V24.282H12.563V14.42H10.67V11.452H12.565V10.319C12.565 9.12602 12.708 8.41202 12.99 7.82302C13.271 7.23602 13.816 6.58202 14.574 6.21202C15.331 5.84302 16.451 5.65702 17.61 5.65702C18.798 5.65702 19.726 6.05302 20.864 6.37202L20.125 9.16702Z" fill="white"/>
</svg>
