<svg width="1440" height="154" viewBox="0 0 1440 154" fill="none" xmlns="http://www.w3.org/2000/svg">
<path fill-rule="evenodd" clip-rule="evenodd" d="M1551 164.012L1485.46 142.869C1419.92 121.726 1288.83 79.4402 1157.75 72.3926C1026.67 65.345 895.583 93.5355 764.5 107.631C633.417 121.726 502.333 121.726 371.25 111.155C240.167 100.583 109.083 79.4402 43.5416 68.8688L-22 58.2974V206.297H43.5416C109.083 206.297 240.167 206.297 371.25 206.297C502.333 206.297 633.417 206.297 764.5 206.297C895.583 206.297 1026.67 206.297 1157.75 206.297C1288.83 206.297 1419.92 206.297 1485.46 206.297H1551V164.012Z" fill="#55B7F9"/>
<path opacity="0.8" fill-rule="evenodd" clip-rule="evenodd" d="M1668 105.927L1598.5 84.7413C1529 63.556 1390 21.1853 1251 14.1236C1112 7.06178 973 35.3089 834 49.4324C695 63.556 556 63.556 417 52.9633C278 42.3707 139 21.1853 69.5 10.5927L0 0V148.297H69.5C139 148.297 278 148.297 417 148.297C556 148.297 695 148.297 834 148.297C973 148.297 1112 148.297 1251 148.297C1390 148.297 1529 148.297 1598.5 148.297H1668V105.927Z" fill="#FFF5A8"/>
<path opacity="0.8" fill-rule="evenodd" clip-rule="evenodd" d="M-22 128.744L43.5417 107.595C109.083 86.4463 240.167 44.1488 371.25 37.0992C502.333 30.0496 633.417 58.248 764.5 72.3471C895.583 86.4463 1026.67 86.4463 1157.75 75.8719C1288.83 65.2975 1419.92 44.1488 1485.46 33.5744L1551 23V171.041H1485.46C1419.92 171.041 1205.95 155.568 1074.87 155.568C943.784 155.568 798.341 195 667.258 195C536.175 195 502.333 171.041 371.25 171.041C240.167 171.041 109.083 171.041 43.5417 171.041H-22V128.744Z" fill="#AFE69C"/>
</svg>
