<svg width="31" height="31" viewBox="0 0 31 31" fill="none" xmlns="http://www.w3.org/2000/svg">
<rect x="5.44165" y="4.55756" width="20.0667" height="23.3998" fill="#333333"/>
<path d="M15.4997 12.4175C13.8005 12.4175 12.4169 13.8005 12.4169 15.4997C12.4169 17.1995 13.8005 18.5831 15.4997 18.5831C17.1995 18.5831 18.5824 17.1995 18.5824 15.4997C18.5824 13.8005 17.1995 12.4175 15.4997 12.4175ZM15.4997 12.4175C13.8005 12.4175 12.4169 13.8005 12.4169 15.4997C12.4169 17.1995 13.8005 18.5831 15.4997 18.5831C17.1995 18.5831 18.5824 17.1995 18.5824 15.4997C18.5824 13.8005 17.1995 12.4175 15.4997 12.4175ZM20.6354 7.39135H10.3646C8.72528 7.39135 7.39135 8.72528 7.39135 10.3646V20.6354C7.39135 22.2747 8.72528 23.6086 10.3646 23.6086H20.6354C22.2747 23.6086 23.6086 22.2747 23.6086 20.6354V10.3646C23.6086 8.72528 22.2747 7.39135 20.6354 7.39135ZM15.4997 20.8388C12.5563 20.8388 10.1612 18.4437 10.1612 15.4997C10.1612 12.5563 12.5563 10.1612 15.4997 10.1612C18.4437 10.1612 20.8388 12.5563 20.8388 15.4997C20.8388 18.4437 18.4437 20.8388 15.4997 20.8388ZM21.0102 11.2652C20.3136 11.2652 19.747 10.6986 19.747 10.0021C19.747 9.30551 20.3136 8.73888 21.0102 8.73888C21.7067 8.73888 22.2734 9.30551 22.2734 10.0021C22.2734 10.6986 21.7067 11.2652 21.0102 11.2652ZM15.4997 12.4175C13.8005 12.4175 12.4169 13.8005 12.4169 15.4997C12.4169 17.1995 13.8005 18.5831 15.4997 18.5831C17.1995 18.5831 18.5824 17.1995 18.5824 15.4997C18.5824 13.8005 17.1995 12.4175 15.4997 12.4175ZM20.6354 7.39135H10.3646C8.72528 7.39135 7.39135 8.72528 7.39135 10.3646V20.6354C7.39135 22.2747 8.72528 23.6086 10.3646 23.6086H20.6354C22.2747 23.6086 23.6086 22.2747 23.6086 20.6354V10.3646C23.6086 8.72528 22.2747 7.39135 20.6354 7.39135ZM15.4997 20.8388C12.5563 20.8388 10.1612 18.4437 10.1612 15.4997C10.1612 12.5563 12.5563 10.1612 15.4997 10.1612C18.4437 10.1612 20.8388 12.5563 20.8388 15.4997C20.8388 18.4437 18.4437 20.8388 15.4997 20.8388ZM21.0102 11.2652C20.3136 11.2652 19.747 10.6986 19.747 10.0021C19.747 9.30551 20.3136 8.73888 21.0102 8.73888C21.7067 8.73888 22.2734 9.30551 22.2734 10.0021C22.2734 10.6986 21.7067 11.2652 21.0102 11.2652ZM15.4997 12.4175C13.8005 12.4175 12.4169 13.8005 12.4169 15.4997C12.4169 17.1995 13.8005 18.5831 15.4997 18.5831C17.1995 18.5831 18.5824 17.1995 18.5824 15.4997C18.5824 13.8005 17.1995 12.4175 15.4997 12.4175ZM0 0V31H31V0H0ZM25.8643 20.6354C25.8643 23.5189 23.5189 25.8643 20.6354 25.8643H10.3646C7.48114 25.8643 5.13572 23.5189 5.13572 20.6354V10.3646C5.13572 7.48114 7.48114 5.13572 10.3646 5.13572H20.6354C23.5189 5.13572 25.8643 7.48114 25.8643 10.3646V20.6354ZM20.6354 7.39135H10.3646C8.72528 7.39135 7.39135 8.72528 7.39135 10.3646V20.6354C7.39135 22.2747 8.72528 23.6086 10.3646 23.6086H20.6354C22.2747 23.6086 23.6086 22.2747 23.6086 20.6354V10.3646C23.6086 8.72528 22.2747 7.39135 20.6354 7.39135ZM15.4997 20.8388C12.5563 20.8388 10.1612 18.4437 10.1612 15.4997C10.1612 12.5563 12.5563 10.1612 15.4997 10.1612C18.4437 10.1612 20.8388 12.5563 20.8388 15.4997C20.8388 18.4437 18.4437 20.8388 15.4997 20.8388ZM21.0102 11.2652C20.3136 11.2652 19.747 10.6986 19.747 10.0021C19.747 9.30551 20.3136 8.73888 21.0102 8.73888C21.7067 8.73888 22.2734 9.30551 22.2734 10.0021C22.2734 10.6986 21.7067 11.2652 21.0102 11.2652ZM15.4997 12.4175C13.8005 12.4175 12.4169 13.8005 12.4169 15.4997C12.4169 17.1995 13.8005 18.5831 15.4997 18.5831C17.1995 18.5831 18.5824 17.1995 18.5824 15.4997C18.5824 13.8005 17.1995 12.4175 15.4997 12.4175ZM15.4997 12.4175C13.8005 12.4175 12.4169 13.8005 12.4169 15.4997C12.4169 17.1995 13.8005 18.5831 15.4997 18.5831C17.1995 18.5831 18.5824 17.1995 18.5824 15.4997C18.5824 13.8005 17.1995 12.4175 15.4997 12.4175ZM15.4997 12.4175C13.8005 12.4175 12.4169 13.8005 12.4169 15.4997C12.4169 17.1995 13.8005 18.5831 15.4997 18.5831C17.1995 18.5831 18.5824 17.1995 18.5824 15.4997C18.5824 13.8005 17.1995 12.4175 15.4997 12.4175ZM20.6354 7.39135H10.3646C8.72528 7.39135 7.39135 8.72528 7.39135 10.3646V20.6354C7.39135 22.2747 8.72528 23.6086 10.3646 23.6086H20.6354C22.2747 23.6086 23.6086 22.2747 23.6086 20.6354V10.3646C23.6086 8.72528 22.2747 7.39135 20.6354 7.39135ZM15.4997 20.8388C12.5563 20.8388 10.1612 18.4437 10.1612 15.4997C10.1612 12.5563 12.5563 10.1612 15.4997 10.1612C18.4437 10.1612 20.8388 12.5563 20.8388 15.4997C20.8388 18.4437 18.4437 20.8388 15.4997 20.8388ZM21.0102 11.2652C20.3136 11.2652 19.747 10.6986 19.747 10.0021C19.747 9.30551 20.3136 8.73888 21.0102 8.73888C21.7067 8.73888 22.2734 9.30551 22.2734 10.0021C22.2734 10.6986 21.7067 11.2652 21.0102 11.2652ZM15.4997 12.4175C13.8005 12.4175 12.4169 13.8005 12.4169 15.4997C12.4169 17.1995 13.8005 18.5831 15.4997 18.5831C17.1995 18.5831 18.5824 17.1995 18.5824 15.4997C18.5824 13.8005 17.1995 12.4175 15.4997 12.4175ZM15.4997 12.4175C13.8005 12.4175 12.4169 13.8005 12.4169 15.4997C12.4169 17.1995 13.8005 18.5831 15.4997 18.5831C17.1995 18.5831 18.5824 17.1995 18.5824 15.4997C18.5824 13.8005 17.1995 12.4175 15.4997 12.4175ZM15.4997 12.4175C13.8005 12.4175 12.4169 13.8005 12.4169 15.4997C12.4169 17.1995 13.8005 18.5831 15.4997 18.5831C17.1995 18.5831 18.5824 17.1995 18.5824 15.4997C18.5824 13.8005 17.1995 12.4175 15.4997 12.4175ZM20.6354 7.39135H10.3646C8.72528 7.39135 7.39135 8.72528 7.39135 10.3646V20.6354C7.39135 22.2747 8.72528 23.6086 10.3646 23.6086H20.6354C22.2747 23.6086 23.6086 22.2747 23.6086 20.6354V10.3646C23.6086 8.72528 22.2747 7.39135 20.6354 7.39135ZM15.4997 20.8388C12.5563 20.8388 10.1612 18.4437 10.1612 15.4997C10.1612 12.5563 12.5563 10.1612 15.4997 10.1612C18.4437 10.1612 20.8388 12.5563 20.8388 15.4997C20.8388 18.4437 18.4437 20.8388 15.4997 20.8388ZM21.0102 11.2652C20.3136 11.2652 19.747 10.6986 19.747 10.0021C19.747 9.30551 20.3136 8.73888 21.0102 8.73888C21.7067 8.73888 22.2734 9.30551 22.2734 10.0021C22.2734 10.6986 21.7067 11.2652 21.0102 11.2652ZM15.4997 12.4175C13.8005 12.4175 12.4169 13.8005 12.4169 15.4997C12.4169 17.1995 13.8005 18.5831 15.4997 18.5831C17.1995 18.5831 18.5824 17.1995 18.5824 15.4997C18.5824 13.8005 17.1995 12.4175 15.4997 12.4175Z" fill="white"/>
</svg>
