<svg width="34" height="34" viewBox="0 0 34 34" fill="none" xmlns="http://www.w3.org/2000/svg">
<rect x="1.41943" y="3.88562" width="31.1604" height="24.8088" fill="#333333"/>
<path fill-rule="evenodd" clip-rule="evenodd" d="M0 0V34H34V0H0ZM26.3594 12.1996C26.3686 12.4068 26.3733 12.6151 26.3733 12.8243C26.3733 19.206 21.516 26.5645 12.6334 26.5645C9.90618 26.5645 7.36776 25.7651 5.23069 24.3947C5.60851 24.4396 5.99282 24.4624 6.38273 24.4624C8.64527 24.4624 10.7275 23.6905 12.3803 22.3949C10.2671 22.3562 8.48356 20.9599 7.86895 19.0413C8.16396 19.0978 8.46652 19.1282 8.77768 19.1282C9.21811 19.1282 9.64479 19.0688 10.05 18.9587C7.84092 18.5149 6.17619 16.5632 6.17619 14.2235C6.17619 14.2031 6.17619 14.1829 6.17664 14.1627C6.82765 14.5244 7.57221 14.7417 8.36393 14.7668C7.06804 13.9008 6.21572 12.4226 6.21572 10.7473C6.21572 9.86217 6.45387 9.03272 6.86964 8.31931C9.25136 11.2411 12.8098 13.1636 16.8233 13.3652C16.7409 13.0116 16.698 12.643 16.698 12.2646C16.698 9.59779 18.8604 7.43561 21.5272 7.43561C22.9162 7.43561 24.1713 8.02198 25.0522 8.96046C26.1521 8.74413 27.1857 8.34203 28.1187 7.78869C27.7583 8.91644 26.9926 9.86262 25.9954 10.4604C26.9724 10.3436 27.903 10.084 28.7691 9.69986C28.1218 10.6682 27.3031 11.5188 26.3594 12.1996Z" fill="white"/>
</svg>
