<svg width="1440" height="223" viewBox="0 0 1440 223" fill="none" xmlns="http://www.w3.org/2000/svg">
<path fill-rule="evenodd" clip-rule="evenodd" d="M1454 42.2857L1388.46 63.4286C1322.92 84.5714 1191.83 126.857 1060.75 133.905C929.667 140.952 798.583 112.762 667.5 98.6667C536.417 84.5714 405.333 84.5714 274.25 95.1429C143.167 105.714 12.0834 126.857 -53.4584 137.429L-119 148V0H-53.4584C12.0834 0 143.167 0 274.25 0C405.333 0 536.417 0 667.5 0C798.583 0 929.667 0 1060.75 0C1191.83 0 1322.92 0 1388.46 0H1454V42.2857Z" fill="#55B7F9"/>
<path opacity="0.8" fill-rule="evenodd" clip-rule="evenodd" d="M1559 116.371L1489.5 137.556C1420 158.741 1281 201.112 1142 208.174C1003 215.236 864 186.988 725 172.865C586 158.741 447 158.741 308 169.334C169 179.927 30 201.112 -39.5 211.705L-109 222.297V74.0001H-39.5C30 74.0001 169 74.0001 308 74.0001C447 74.0001 586 74.0001 725 74.0001C864 74.0001 1003 74.0001 1142 74.0001C1281 74.0001 1420 74.0001 1489.5 74.0001H1559V116.371Z" fill="#FFF5A8"/>
<path opacity="0.8" fill-rule="evenodd" clip-rule="evenodd" d="M-119 87.2561L-53.4583 108.405C12.0833 129.554 143.167 171.851 274.25 178.901C405.333 185.95 536.417 157.752 667.5 143.653C798.583 129.554 929.667 129.554 1060.75 140.128C1191.83 150.702 1322.92 171.851 1388.46 182.426L1454 193V44.9586H1388.46C1322.92 44.9586 1108.95 60.4318 977.868 60.4318C846.784 60.4318 701.341 21 570.258 21C439.175 21 405.333 44.9586 274.25 44.9586C143.167 44.9586 12.0833 44.9586 -53.4583 44.9586H-119V87.2561Z" fill="#AFE69C"/>
</svg>
